<svg width="777" height="868" viewBox="0 0 777 868" fill="none" xmlns="http://www.w3.org/2000/svg">
<path fill-rule="evenodd" clip-rule="evenodd" d="M374.852 729.858L488.825 719.358L472.325 748.358L504.442 766.472C505.691 767.176 506.468 768.497 506.476 769.932C506.49 772.141 504.71 773.942 502.501 773.956C465.851 774.177 438.872 774.204 421.565 774.036C401.97 773.845 385.784 773.476 373.005 772.927L374.852 729.858ZM54.3254 628.858L84.3254 700.858L46.5223 714.752L7.11915 763.815C6.25395 764.892 4.89403 765.447 3.52221 765.282C1.32891 765.018 -0.235012 763.026 0.0290844 760.832L13.9807 644.966L54.3254 628.858Z" fill="black" fill-opacity="0.8"/>
<path fill-rule="evenodd" clip-rule="evenodd" d="M490.43 446.358L600.047 514.249C625.328 529.907 633.585 562.823 618.688 588.559L533.43 735.858L361.325 735.821L527.93 567.358L394.93 517.858L275.825 593.142L107.43 758.358L40.8252 598.547L201.93 538.858L291.93 482.858L331.43 435.858L490.43 446.358Z" fill="#333333" fill-opacity="0.1"/>
<path d="M527.937 567.812L363.016 734.571L532.893 734.608L617.934 587.684C632.628 562.298 624.483 529.831 599.547 514.387L490.089 446.594L331.655 436.131L292.323 482.931L202.222 538.994L202.086 539.061L41.7127 598.479L107.591 756.546L275.195 592.107L275.319 592.008L394.739 516.525L527.579 565.966L531.24 561.389C531.498 561.066 531.97 561.013 532.294 561.272C532.617 561.531 532.67 562.003 532.411 562.326L529.059 566.516L529.175 566.56L529.018 566.719L532.223 568.722C532.574 568.941 532.681 569.404 532.461 569.755C532.242 570.106 531.779 570.213 531.428 569.994L527.937 567.812ZM291.328 481.784L291.251 481.875L291.429 481.721L291.328 481.784ZM291.328 481.784L330.996 434.584L490.561 445.122L600.337 513.112C625.962 528.983 634.332 562.348 619.232 588.435L533.758 736.108L359.424 736.07L526.476 567.156L394.912 518.19L276.188 593.234L107.059 759.169L39.7275 597.615L201.494 537.681L291.328 481.784ZM201.494 537.681L201.429 537.721L201.565 537.654L201.494 537.681Z" fill="black" fill-opacity="0.8"/>
<path fill-rule="evenodd" clip-rule="evenodd" d="M384.825 289.858L459.914 290.729L533.259 297.764L691.825 307.858L651.325 123.858L717.825 124.358C755.83 265.213 774.906 337.821 775.052 342.18C775.902 367.571 756.009 388.844 730.618 389.695L509.825 373.358L489.325 442.358L389.825 437.858L384.825 289.858Z" fill="#333333" fill-opacity="0.1"/>
<path d="M490.371 443.157L384.073 434.046L384.578 289.099L385.334 289.108L460.486 289.983L533.807 297.015L691.379 307.046L650.891 123.101L718.901 123.612L719.05 124.162C757.178 265.474 776.153 337.698 776.302 342.155C777.166 367.96 756.948 389.58 731.063 390.443L510.873 374.15L490.371 443.157ZM385.578 432.669L489.281 441.558L509.779 372.565L510.381 372.61L731.093 388.945C756.07 388.108 775.639 367.182 774.803 342.205C774.66 337.95 755.534 265.144 717.75 125.103L652.76 124.615L693.272 308.669L692.278 308.606L533.688 298.51L460.405 291.479L386.073 290.616L385.578 432.669Z" fill="black" fill-opacity="0.8"/>
<path fill-rule="evenodd" clip-rule="evenodd" d="M441.825 444.358L490.479 445.67L493.084 435.17L441.825 433.358V444.358Z" fill="black" fill-opacity="0.8"/>
<path fill-rule="evenodd" clip-rule="evenodd" d="M191.325 205.858L121.008 441.442C116.427 456.789 124.709 473.028 139.822 478.33L169.825 488.858L321.825 387.358L321.93 289.858L251.825 317.358L290.825 205.858L263.825 140.858L235.325 154.858L191.325 205.858Z" fill="#333333" fill-opacity="0.1"/>
<path d="M292.277 205.108H191.162L120.685 441.228C115.99 456.958 124.479 473.603 139.969 479.038L170.326 489.689L322.97 387.759L323.077 288.757L253.468 316.063L292.277 205.108ZM192.279 206.608H290.164L250.973 318.653L321.575 290.958L321.471 386.956L170.116 488.026L140.466 477.623C125.731 472.453 117.656 456.62 122.122 441.657L192.279 206.608Z" fill="black" fill-opacity="0.8"/>
<path fill-rule="evenodd" clip-rule="evenodd" d="M293.825 231.858L288.38 255.178L176.825 226.858L181.873 202.858L293.825 231.858Z" fill="#333333" fill-opacity="0.1"/>
<path d="M294.521 231.26L288.473 255.518L175.919 227.455L181.967 203.198L294.521 231.26ZM292.703 232.353L183.06 205.016L177.737 226.362L287.381 253.7L292.703 232.353Z" fill="black" fill-opacity="0.8"/>
<path d="M188.889 217.806C188.054 221.155 190.092 224.547 193.441 225.382C196.79 226.217 200.182 224.179 201.017 220.83C201.852 217.481 199.814 214.089 196.465 213.254C193.116 212.419 189.724 214.457 188.889 217.806ZM190.344 218.169C190.979 215.623 193.557 214.074 196.102 214.709C198.647 215.344 200.196 217.922 199.562 220.467C198.927 223.013 196.349 224.562 193.804 223.927C191.258 223.292 189.709 220.714 190.344 218.169Z" fill="black" fill-opacity="0.8"/>
<path d="M438.85 424.811L418.898 423.416C414.491 423.108 410.668 426.431 410.36 430.838L409.383 444.804C409.075 449.212 412.398 453.034 416.806 453.343L436.757 454.738C441.165 455.046 444.987 451.723 445.296 447.315L446.272 433.349C446.58 428.942 443.257 425.119 438.85 424.811Z" fill="#333333" fill-opacity="0.1"/>
<path d="M418.897 423.197L438.848 424.592C443.255 424.9 446.578 428.723 446.27 433.13L445.294 447.096C444.985 451.504 441.163 454.827 436.755 454.519L416.804 453.124C412.396 452.815 409.073 448.993 409.381 444.585L410.358 430.619C410.666 426.212 414.489 422.889 418.897 423.197ZM418.792 424.693C415.211 424.443 412.105 427.143 411.854 430.724L410.878 444.69C410.627 448.271 413.327 451.377 416.908 451.627L436.86 453.022C440.441 453.273 443.547 450.573 443.797 446.992L444.774 433.026C445.024 429.445 442.324 426.339 438.743 426.088L418.792 424.693Z" fill="black" fill-opacity="0.8"/>
<path fill-rule="evenodd" clip-rule="evenodd" d="M319.892 622.527L320.841 208.858H321.786V206.795H148.825V153.378L320.93 0.857666H384.808V153.378H433.825V206.795H384.808V208.858H384.825V651.858H384.808V773.378H433.825V826.795H384.808V866.858H321.786V826.795H148.825V773.378L319.892 622.527ZM215.93 773.358H320.93L320.43 685.858L215.93 773.358ZM215.825 153.858H320.825L320.43 65.8577L215.825 153.858Z" fill="#E8C300"/>
<path d="M319.538 622.188L320.485 208.856C320.486 208.442 320.822 208.108 321.235 208.108H321.43V207.545H149.22C148.806 207.545 148.47 207.209 148.47 206.795V153.378C148.47 153.163 148.562 152.959 148.722 152.816L320.827 0.296361C320.965 0.174791 321.142 0.107666 321.325 0.107666H385.203C385.617 0.107666 385.953 0.443452 385.953 0.857666V152.628H434.22C434.634 152.628 434.97 152.963 434.97 153.378V206.795C434.97 207.209 434.634 207.545 434.22 207.545H385.953V208.697C385.964 208.749 385.97 208.803 385.97 208.858V651.858C385.97 651.913 385.964 651.966 385.953 652.018V772.628H434.22C434.634 772.628 434.97 772.964 434.97 773.378V826.795C434.97 827.209 434.634 827.545 434.22 827.545H385.953V866.858C385.953 867.272 385.617 867.608 385.203 867.608H322.18C321.766 867.608 321.43 867.272 321.43 866.858V827.545H149.22C148.806 827.545 148.47 827.209 148.47 826.795V773.378C148.47 773.162 148.562 772.958 148.724 772.815L319.538 622.188ZM321.43 208.108H322.18L321.43 208.858V208.108ZM321.037 622.529C321.036 622.744 320.944 622.948 320.783 623.09L149.97 773.716V826.045H322.18C322.595 826.045 322.93 826.381 322.93 826.795V866.108H384.453V826.795C384.453 826.381 384.788 826.045 385.203 826.045H433.47V774.128H385.203C384.788 774.128 384.453 773.792 384.453 773.378V651.858C384.453 651.803 384.458 651.749 384.47 651.697V209.018C384.458 208.966 384.453 208.913 384.453 208.858V206.795C384.453 206.381 384.788 206.045 385.203 206.045H433.47V154.128H385.203C384.788 154.128 384.453 153.792 384.453 153.378V1.60767H321.609L149.97 153.715V206.045H322.18C322.595 206.045 322.93 206.381 322.93 206.795V208.858C322.93 209.272 322.595 209.608 322.18 209.608H321.984L321.037 622.529ZM216.325 774.108C215.624 774.108 215.306 773.232 215.843 772.783L320.343 685.283C320.83 684.875 321.571 685.219 321.575 685.853L322.075 773.353C322.077 773.769 321.741 774.108 321.325 774.108H216.325ZM320.571 772.608L320.084 687.456L218.389 772.608H320.571ZM216.22 154.608C215.52 154.608 215.201 153.734 215.737 153.284L320.342 65.2837C320.829 64.8744 321.572 65.2184 321.575 65.8543L321.97 153.854C321.972 154.27 321.635 154.608 321.22 154.608H216.22ZM320.466 153.108L320.082 67.4627L218.276 153.108H320.466Z" fill="black" fill-opacity="0.8"/>
<path d="M291.325 559.858C194.703 559.858 148.825 515.058 148.825 433.508C148.825 352.308 194.703 307.858 291.325 307.858C387.6 307.858 433.825 352.658 433.825 433.508C433.825 514.708 387.6 559.858 291.325 559.858ZM290.825 506.858C346.469 506.858 371.825 479.264 371.825 433.508C371.825 388.102 346.469 360.858 290.825 360.858C235.182 360.858 209.825 387.752 209.825 433.508C209.825 479.614 235.182 506.858 290.825 506.858Z" fill="#E8C300"/>
<path d="M291.72 560.608C196.415 560.608 148.47 517.048 148.47 433.508C148.47 350.364 196.374 307.108 291.72 307.108C386.703 307.108 434.97 350.7 434.97 433.508C434.97 516.711 386.664 560.608 291.72 560.608ZM291.72 559.108C385.865 559.108 433.47 515.848 433.47 433.508C433.47 351.565 385.907 308.608 291.72 308.608C197.17 308.608 149.97 351.228 149.97 433.508C149.97 516.185 197.213 559.108 291.72 559.108ZM291.22 507.608C236.895 507.608 209.47 481.668 209.47 433.508C209.47 385.746 236.862 360.108 291.22 360.108C345.442 360.108 372.97 385.963 372.97 433.508C372.97 481.451 345.411 507.608 291.22 507.608ZM291.22 506.108C344.599 506.108 371.47 480.605 371.47 433.508C371.47 386.813 344.634 361.608 291.22 361.608C237.669 361.608 210.97 386.597 210.97 433.508C210.97 480.821 237.706 506.108 291.22 506.108Z" fill="black" fill-opacity="0.8"/>
<path d="M198.939 538.356C165.186 517.551 148.825 482.037 148.825 433.508C148.825 384.743 165.487 349.233 199.873 328.645L229.414 380.067C216.15 392.509 209.825 410.656 209.825 433.508C209.825 455.782 215.743 473.653 228.134 486.177L198.939 538.356ZM383.711 538.356L354.516 486.177C366.907 473.653 372.825 455.782 372.825 433.508C372.825 410.656 366.5 392.509 353.237 380.067L382.777 328.645C417.163 349.233 433.825 384.743 433.825 433.508C433.825 482.037 417.465 517.551 383.711 538.356Z" fill="black" fill-opacity="0.8"/>
<path d="M193.463 439.556C192.633 445.795 187.291 450.608 180.825 450.608C174.359 450.608 169.018 445.795 168.187 439.556L167.356 440.388C167.063 440.681 166.588 440.681 166.295 440.388C166.002 440.095 166.002 439.62 166.295 439.327L168.825 436.797L171.356 439.327C171.648 439.62 171.648 440.095 171.356 440.388C171.063 440.681 170.588 440.681 170.295 440.388L169.75 439.843C170.645 444.87 174.878 448.741 180.075 449.083V427.548C179.915 427.523 179.755 427.489 179.596 427.446C177.062 426.767 175.558 424.162 176.237 421.628C176.916 419.094 179.521 417.591 182.055 418.269C184.589 418.948 186.092 421.553 185.413 424.087C184.913 425.954 183.368 427.262 181.575 427.549V449.083C186.772 448.741 191.006 444.87 191.901 439.843L191.356 440.388C191.063 440.681 190.588 440.681 190.295 440.388C190.002 440.095 190.002 439.62 190.295 439.327L192.825 436.797L195.356 439.327C195.648 439.62 195.648 440.095 195.356 440.388C195.063 440.681 194.588 440.681 194.295 440.388L193.463 439.556ZM179.984 425.997C181.718 426.461 183.5 425.433 183.964 423.699C184.429 421.965 183.4 420.183 181.666 419.718C179.933 419.254 178.15 420.283 177.686 422.016C177.221 423.75 178.25 425.532 179.984 425.997Z" fill="#333333" fill-opacity="0.1"/>
<path d="M402.575 449.083V427.548C402.735 427.523 402.895 427.489 403.055 427.446C405.589 426.767 407.092 424.162 406.413 421.628C405.734 419.094 403.13 417.591 400.596 418.269C398.062 418.948 396.558 421.553 397.237 424.087C397.737 425.954 399.283 427.262 401.075 427.549V449.083C395.878 448.741 391.645 444.87 390.75 439.843L391.295 440.388C391.588 440.681 392.063 440.681 392.356 440.388C392.648 440.095 392.648 439.62 392.356 439.327L389.825 436.797L387.295 439.327C387.002 439.62 387.002 440.095 387.295 440.388C387.588 440.681 388.063 440.681 388.356 440.388L389.187 439.556C390.018 445.795 395.359 450.608 401.825 450.608C408.291 450.608 413.633 445.795 414.463 439.556L415.295 440.388C415.588 440.681 416.063 440.681 416.356 440.388C416.648 440.095 416.648 439.62 416.356 439.327L413.825 436.797L411.295 439.327C411.002 439.62 411.002 440.095 411.295 440.388C411.588 440.681 412.063 440.681 412.356 440.388L412.901 439.843C412.006 444.87 407.772 448.741 402.575 449.083ZM402.666 425.997C400.933 426.461 399.15 425.433 398.686 423.699C398.221 421.965 399.25 420.183 400.984 419.718C402.718 419.254 404.5 420.283 404.964 422.016C405.429 423.75 404.4 425.532 402.666 425.997Z" fill="#333333" fill-opacity="0.1"/>
<path fill-rule="evenodd" clip-rule="evenodd" d="M595.825 140.858L529.402 153.592C536.66 161.614 545.933 165.829 557.222 166.237C568.511 166.645 583.952 165.342 603.544 162.327L595.825 140.858Z" fill="#333333" fill-opacity="0.1"/>
<path d="M579.516 142.013L579.147 140.559L527.822 153.579L528.657 154.503C536.053 162.677 545.518 166.979 557.007 167.394C568.351 167.804 583.835 166.497 603.47 163.476L603.242 161.993C583.693 165.002 568.295 166.301 557.061 165.895C546.412 165.51 537.614 161.688 530.626 154.415L579.516 142.013Z" fill="black" fill-opacity="0.8"/>
<mask id="mask0" mask-type="alpha" maskUnits="userSpaceOnUse" x="401" y="123" width="140" height="167">
<path d="M460.325 289.858L470.325 249.858L489.103 252.482C504.976 254.701 520.043 244.834 524.354 229.397L539.297 175.885C545.387 154.076 532.644 131.459 510.835 125.368C507.245 124.366 503.535 123.858 499.808 123.858H466.162C453.886 123.858 443.155 132.139 440.043 144.013L401.825 289.858H460.325Z" fill="white"/>
</mask>
<g mask="url(#mask0)">
<path d="M460.325 289.858L470.325 249.858L489.103 252.482C504.976 254.701 520.043 244.834 524.354 229.397L539.297 175.885C545.387 154.076 532.644 131.459 510.835 125.368C507.245 124.366 503.535 123.858 499.808 123.858H466.162C453.886 123.858 443.155 132.139 440.043 144.013L401.825 289.858H460.325Z" fill="#333333" fill-opacity="0.1"/>
<mask id="mask1" mask-type="alpha" maskUnits="userSpaceOnUse" x="401" y="123" width="140" height="167">
<path d="M460.325 289.858L470.325 249.858L489.103 252.482C504.976 254.701 520.043 244.834 524.354 229.397L539.297 175.885C545.387 154.076 532.644 131.459 510.835 125.368C507.245 124.366 503.535 123.858 499.808 123.858H466.162C453.886 123.858 443.155 132.139 440.043 144.013L401.825 289.858H460.325Z" fill="white"/>
</mask>
<g mask="url(#mask1)">
<path d="M460.325 289.858L470.325 249.858L489.103 252.482C504.976 254.701 520.043 244.834 524.354 229.397L539.297 175.885C545.387 154.076 532.644 131.459 510.835 125.368C507.245 124.366 503.535 123.858 499.808 123.858H466.162C453.886 123.858 443.155 132.139 440.043 144.013L401.825 289.858H460.325Z" fill="#333333" fill-opacity="0.1"/>
<path fill-rule="evenodd" clip-rule="evenodd" d="M532.689 183.498L537.825 182.858L537.154 193.223C537.055 194.757 535.731 195.92 534.198 195.821C534.128 195.816 534.059 195.809 533.99 195.799C532.349 195.569 531.206 194.052 531.437 192.411L532.689 183.498Z" fill="black" fill-opacity="0.8"/>
</g>
<path d="M488.999 253.225C505.245 255.496 520.665 245.398 525.076 229.599L540.019 176.087C546.221 153.878 533.245 130.848 511.037 124.646C507.381 123.625 503.603 123.108 499.808 123.108H466.162C453.545 123.108 442.516 131.619 439.318 143.823L400.854 290.608H460.911L470.889 250.694L488.999 253.225ZM459.74 289.108H402.797L440.769 144.204C443.794 132.659 454.227 124.608 466.162 124.608H499.808C503.467 124.608 507.109 125.107 510.633 126.091C532.044 132.07 544.553 154.273 538.575 175.683L523.632 229.195C519.422 244.271 504.708 253.907 489.207 251.74L469.761 249.022L459.74 289.108Z" fill="black" fill-opacity="0.8"/>
</g>
<mask id="mask2" mask-type="alpha" maskUnits="userSpaceOnUse" x="412" y="123" width="94" height="84">
<path d="M479.809 177.841L476.951 174.983C470.786 168.819 460.809 168.763 454.575 174.858C448.647 180.654 448.54 190.159 454.337 196.087C454.501 196.255 454.669 196.419 454.841 196.579L456.873 198.471C446.132 203.094 431.449 205.89 412.825 206.858L439.354 139.107C442.956 129.909 451.824 123.858 461.702 123.858H505.325C496.065 147.858 487.559 165.852 479.809 177.841Z" fill="white"/>
</mask>
<g mask="url(#mask2)">
<path d="M479.809 177.841L476.951 174.983C470.786 168.819 460.809 168.763 454.575 174.858C448.647 180.654 448.54 190.159 454.337 196.087C454.501 196.255 454.669 196.419 454.841 196.579L456.873 198.471C446.132 203.094 431.449 205.89 412.825 206.858L439.354 139.107C442.956 129.909 451.824 123.858 461.702 123.858H505.325C496.065 147.858 487.559 165.852 479.809 177.841Z" fill="black" fill-opacity="0.8"/>
</g>
<path fill-rule="evenodd" clip-rule="evenodd" d="M465.825 103.358L491.825 82.3577L510.325 103.358" fill="#333333" fill-opacity="0.1"/>
<path fill-rule="evenodd" clip-rule="evenodd" d="M441.825 103.358C441.825 103.358 447.325 110.191 458.325 123.858H514.825L534.825 103.358C472.825 103.358 441.825 103.358 441.825 103.358Z" fill="#333333" fill-opacity="0.1"/>
<path d="M491.738 83.8927L509.763 104.353L510.889 103.362L491.914 81.8228L465.354 103.274L466.297 104.441L491.738 83.8927Z" fill="black" fill-opacity="0.8"/>
<path d="M441.241 104.328L457.741 124.828C457.884 125.005 458.099 125.108 458.326 125.108H514.826C515.028 125.108 515.221 125.026 515.362 124.881L535.362 104.381C535.826 103.906 535.489 103.108 534.826 103.108H441.826C441.196 103.108 440.846 103.837 441.241 104.328ZM533.046 104.608L514.51 123.608H458.685L443.392 104.608H533.046Z" fill="black" fill-opacity="0.8"/>
<path fill-rule="evenodd" clip-rule="evenodd" d="M529.825 184.858L531.325 218.858L515.825 207.358" fill="#333333" fill-opacity="0.1"/>
<path fill-rule="evenodd" clip-rule="evenodd" d="M406.325 266.858H443.43L444.43 290.444L457.93 266.858H470.325L462.325 290.858L398.825 290.358L406.325 266.858Z" fill="#333333" fill-opacity="0.1"/>
<path d="M511.562 182.825L510.379 191.246C510.148 192.887 508.631 194.03 506.99 193.799C505.35 193.569 504.206 192.052 504.437 190.411L505.658 181.722L490.188 178.834C489.78 178.758 489.512 178.366 489.588 177.959C489.664 177.551 490.056 177.283 490.463 177.359L515.963 182.12C516.37 182.197 516.639 182.588 516.563 182.995C516.487 183.403 516.095 183.671 515.688 183.595L511.562 182.825ZM529.939 183.616L537.683 182.121C538.09 182.043 538.483 182.309 538.562 182.716C538.64 183.122 538.374 183.516 537.967 183.594L530.605 185.015L532.075 218.325C532.102 218.956 531.386 219.336 530.878 218.96L528.582 217.256L531.325 226.858C527.868 225.915 525.065 223.382 523.779 220.037L523.325 218.858C517.094 221.809 510.215 223.127 503.335 222.688L490.325 221.858L517.671 209.161L515.378 207.46C515.046 207.213 514.976 206.744 515.223 206.411C515.47 206.078 515.94 206.009 516.272 206.255L530.507 216.816L529.076 184.391C529.058 183.977 529.378 183.627 529.792 183.608C529.842 183.606 529.891 183.609 529.939 183.616Z" fill="black" fill-opacity="0.8"/>
<path d="M444.794 291.47L434.351 328.847C434.239 329.246 433.825 329.479 433.427 329.367C433.028 329.256 432.795 328.842 432.906 328.443L443.24 291.457L398.82 291.108C398.314 291.104 397.958 290.611 398.111 290.13L405.611 266.63C405.71 266.319 405.999 266.108 406.326 266.108H443.431C443.833 266.108 444.163 266.424 444.18 266.826L445.07 287.817L457.28 266.485C457.414 266.252 457.662 266.108 457.931 266.108H470.326C470.838 266.108 471.199 266.609 471.037 267.095L463.037 291.095C462.934 291.403 462.645 291.61 462.32 291.608L444.794 291.47ZM399.85 289.616L443.66 289.961L442.712 267.608H406.874L399.85 289.616ZM461.787 290.103L469.285 267.608H458.366L445.563 289.976L461.787 290.103Z" fill="black" fill-opacity="0.8"/>
<path fill-rule="evenodd" clip-rule="evenodd" d="M538.529 153.858H597.325C600.325 167.191 611.992 173.858 632.325 173.858C636.343 173.858 641.315 172.394 647.242 169.466L662.325 169.358V123.858H504.825C506.821 140.961 521.31 153.858 538.529 153.858Z" fill="#333333" fill-opacity="0.1"/>
<path d="M632.22 174.608C636.335 174.608 641.361 173.138 647.314 170.215L662.97 170.102V123.108H503.878L503.976 123.945C506.015 141.426 520.824 154.608 538.424 154.608H596.627C599.923 167.948 611.868 174.608 632.22 174.608ZM661.47 124.608V168.613L646.959 168.717L646.805 168.793C640.972 171.675 636.105 173.108 632.22 173.108C612.201 173.108 600.863 166.628 597.952 153.693L597.821 153.108H538.424C521.868 153.108 507.892 140.915 505.574 124.608H661.47Z" fill="black" fill-opacity="0.8"/>
<path d="M504.284 124.468C513.865 131.311 525.329 131.311 538.562 124.525L537.878 123.19C525.111 129.737 514.242 129.737 505.156 123.247L504.284 124.468Z" fill="black" fill-opacity="0.8"/>
<path d="M685.825 121.858H661.825V212.858H685.825V121.858Z" fill="#333333" fill-opacity="0.1"/>
<path d="M661.22 121.858H686.22V212.858H661.22V121.858ZM662.72 211.358H684.72V123.358H662.72V211.358Z" fill="black" fill-opacity="0.8"/>
<path d="M673.72 202.608C677.172 202.608 679.97 199.809 679.97 196.358C679.97 192.906 677.172 190.108 673.72 190.108C670.268 190.108 667.47 192.906 667.47 196.358C667.47 199.809 670.268 202.608 673.72 202.608ZM673.72 201.108C671.096 201.108 668.97 198.981 668.97 196.358C668.97 193.734 671.096 191.608 673.72 191.608C676.343 191.608 678.47 193.734 678.47 196.358C678.47 198.981 676.343 201.108 673.72 201.108Z" fill="black" fill-opacity="0.8"/>
<path d="M385.324 152.608L149.824 153.108L149.827 154.608L385.327 154.108L385.324 152.608Z" fill="black" fill-opacity="0.8"/>
<path d="M385.325 206.358L321.22 207.358" stroke="black" stroke-opacity="0.8" stroke-width="1.5"/>
<path d="M364.575 827.608H343.075V865.858C343.075 866.272 342.739 866.608 342.325 866.608C341.911 866.608 341.575 866.272 341.575 865.858V827.608H321.825V826.108H385.825V827.608H366.075V865.858C366.075 866.272 365.739 866.608 365.325 866.608C364.911 866.608 364.575 866.272 364.575 865.858V827.608Z" fill="black" fill-opacity="0.8"/>
<path d="M433.628 772.608H149.825C149.411 772.608 149.075 772.943 149.075 773.358C149.075 773.772 149.411 774.108 149.825 774.108H433.628C434.042 774.108 434.378 773.772 434.378 773.358C434.378 772.943 434.042 772.608 433.628 772.608Z" fill="black" fill-opacity="0.8"/>
<path fill-rule="evenodd" clip-rule="evenodd" d="M266.825 138.858H274.825C279.243 138.858 282.825 142.439 282.825 146.858V204.858C282.825 211.485 277.453 216.858 270.825 216.858C264.198 216.858 258.825 211.485 258.825 204.858V146.858C258.825 142.439 262.407 138.858 266.825 138.858Z" fill="#333333" fill-opacity="0.1"/>
<path fill-rule="evenodd" clip-rule="evenodd" d="M290.825 138.858H298.825C303.243 138.858 306.825 142.439 306.825 146.858V204.858C306.825 211.485 301.453 216.858 294.825 216.858C288.198 216.858 282.825 211.485 282.825 204.858V146.858C282.825 142.439 286.407 138.858 290.825 138.858Z" fill="#333333" fill-opacity="0.1"/>
<path fill-rule="evenodd" clip-rule="evenodd" d="M314.825 138.858H322.825C327.243 138.858 330.825 142.439 330.825 146.858V204.858C330.825 211.485 325.453 216.858 318.825 216.858C312.198 216.858 306.825 211.485 306.825 204.858V146.858C306.825 142.439 310.407 138.858 314.825 138.858Z" fill="#333333" fill-opacity="0.1"/>
<path d="M306.72 207.869C305.202 213.063 300.404 216.858 294.72 216.858C289.035 216.858 284.237 213.063 282.72 207.869C281.202 213.063 276.404 216.858 270.72 216.858C263.816 216.858 258.22 211.261 258.22 204.358V146.858C258.22 142.439 261.801 138.858 266.22 138.858H275.22C278.657 138.858 281.587 141.025 282.72 144.068C283.852 141.025 286.783 138.858 290.22 138.858H299.22C302.657 138.858 305.587 141.025 306.72 144.068C307.852 141.025 310.783 138.858 314.22 138.858H323.22C327.638 138.858 331.22 142.439 331.22 146.858V204.358C331.22 211.261 325.623 216.858 318.72 216.858C313.035 216.858 308.237 213.063 306.72 207.869ZM266.22 140.358C262.63 140.358 259.72 143.268 259.72 146.858V204.358C259.72 210.433 264.645 215.358 270.72 215.358C276.795 215.358 281.72 210.433 281.72 204.358V146.858C281.72 143.268 278.81 140.358 275.22 140.358H266.22ZM290.22 140.358C286.63 140.358 283.72 143.268 283.72 146.858V204.358C283.72 210.433 288.645 215.358 294.72 215.358C300.795 215.358 305.72 210.433 305.72 204.358V146.858C305.72 143.268 302.81 140.358 299.22 140.358H290.22ZM314.22 140.358C310.63 140.358 307.72 143.268 307.72 146.858V204.358C307.72 210.433 312.645 215.358 318.72 215.358C324.795 215.358 329.72 210.433 329.72 204.358V146.858C329.72 143.268 326.81 140.358 323.22 140.358H314.22Z" fill="black" fill-opacity="0.8"/>
<path d="M260.868 140.696L237.368 153.196L238.073 154.52L261.573 142.02L260.868 140.696Z" fill="black" fill-opacity="0.8"/>
<path fill-rule="evenodd" clip-rule="evenodd" d="M194.644 326.98C197.513 325.323 201.183 326.306 202.84 329.176L231.34 378.539C232.997 381.409 232.013 385.079 229.144 386.735C226.274 388.392 222.604 387.409 220.947 384.539L192.447 335.176C190.791 332.306 191.774 328.637 194.644 326.98ZM194.644 541.101C192.252 539.721 191.433 536.663 192.813 534.271L222.313 483.176C223.694 480.784 226.752 479.965 229.144 481.346C231.535 482.726 232.354 485.784 230.974 488.176L201.474 539.271C200.093 541.663 197.035 542.482 194.644 541.101ZM387.962 327.096C390.592 328.614 391.494 331.978 389.975 334.609L361.975 383.106C360.456 385.737 357.092 386.638 354.462 385.119C351.831 383.601 350.93 380.237 352.449 377.606L380.449 329.109C381.967 326.478 385.331 325.577 387.962 327.096ZM387.895 539.869C385.025 541.526 381.355 540.543 379.699 537.673L351.699 489.176C350.042 486.306 351.025 482.637 353.895 480.98C356.764 479.323 360.434 480.306 362.091 483.176L390.091 531.673C391.748 534.543 390.764 538.213 387.895 539.869Z" fill="#333333" fill-opacity="0.1"/>
<path d="M194.825 326.547C197.934 324.752 201.91 325.817 203.704 328.926L232.204 378.289C233.999 381.398 232.934 385.374 229.825 387.169C226.716 388.964 222.741 387.898 220.946 384.789L192.446 335.426C190.651 332.317 191.716 328.342 194.825 326.547ZM193.745 334.676L222.245 384.039C223.626 386.431 226.684 387.25 229.075 385.87C231.467 384.489 232.286 381.431 230.905 379.039L202.405 329.676C201.025 327.285 197.967 326.465 195.575 327.846C193.184 329.227 192.364 332.285 193.745 334.676ZM194.825 541.169C191.716 539.374 190.651 535.398 192.446 532.289L220.946 482.926C222.741 479.817 226.716 478.752 229.825 480.547C232.934 482.342 233.999 486.317 232.204 489.426L203.704 538.789C201.91 541.898 197.934 542.964 194.825 541.169ZM195.575 539.87C197.967 541.25 201.025 540.431 202.405 538.039L230.905 488.676C232.286 486.285 231.467 483.227 229.075 481.846C226.684 480.465 223.626 481.285 222.245 483.676L193.745 533.039C192.364 535.431 193.184 538.489 195.575 539.87ZM389.076 326.547C392.185 328.342 393.25 332.317 391.456 335.426L362.956 384.789C361.161 387.898 357.185 388.964 354.076 387.169C350.967 385.374 349.902 381.398 351.697 378.289L380.197 328.926C381.992 325.817 385.967 324.752 389.076 326.547ZM381.496 329.676L352.996 379.039C351.616 381.431 352.435 384.489 354.826 385.87C357.218 387.25 360.276 386.431 361.656 384.039L390.156 334.676C391.537 332.285 390.718 329.227 388.326 327.846C385.935 326.465 382.877 327.285 381.496 329.676ZM389.076 541.169C385.967 542.964 381.992 541.898 380.197 538.789L351.697 489.426C349.902 486.317 350.967 482.342 354.076 480.547C357.185 478.752 361.161 479.817 362.956 482.926L391.456 532.289C393.25 535.398 392.185 539.374 389.076 541.169ZM388.326 539.87C390.718 538.489 391.537 535.431 390.156 533.039L361.656 483.676C360.276 481.285 357.218 480.465 354.826 481.846C352.435 483.227 351.616 486.285 352.996 488.676L381.496 538.039C382.877 540.431 385.935 541.25 388.326 539.87Z" fill="black" fill-opacity="0.8"/>
<path d="M261.842 203.901C261.541 204.187 261.067 204.175 260.781 203.874C260.496 203.574 260.508 203.099 260.809 202.814C267.775 196.196 274.274 196.195 279.899 202.875C280.166 203.191 280.125 203.665 279.808 203.931C279.491 204.198 279.018 204.158 278.752 203.841C273.709 197.853 268.208 197.853 261.842 203.901ZM286.342 203.901C286.041 204.187 285.567 204.175 285.281 203.874C284.996 203.574 285.008 203.099 285.309 202.814C292.275 196.196 298.774 196.195 304.399 202.875C304.666 203.191 304.625 203.665 304.308 203.931C303.991 204.198 303.518 204.158 303.252 203.841C298.209 197.853 292.708 197.853 286.342 203.901ZM310.342 203.901C310.041 204.187 309.567 204.175 309.281 203.874C308.996 203.574 309.008 203.099 309.309 202.814C316.275 196.196 322.774 196.195 328.399 202.875C328.666 203.191 328.625 203.665 328.308 203.931C327.991 204.198 327.518 204.158 327.252 203.841C322.209 197.853 316.708 197.853 310.342 203.901Z" fill="black" fill-opacity="0.8"/>
<path d="M320.325 622.358L320.773 688.858" stroke="black" stroke-opacity="0.8" stroke-width="1.5" stroke-linejoin="round"/>
<path d="M320.47 1.35314L321.97 1.36225L321.575 66.3622L320.075 66.3531L320.47 1.35314ZM341.575 0.107692C341.575 -0.306521 341.911 0.607692 342.325 0.607692C342.739 0.607692 343.075 0.943479 343.075 1.35769L342.825 153.358C342.825 153.772 342.739 153.858 342.325 153.858C341.911 153.858 341.325 153.772 341.325 153.358L341.575 0.107692ZM365.075 1.35769C365.075 0.943479 365.411 0.607692 365.825 0.607692C366.239 0.607692 366.575 0.943479 366.575 1.35769L366.325 153.358C366.325 153.772 365.989 154.108 365.575 154.108C365.161 154.108 364.825 153.772 364.825 153.358L365.075 1.35769Z" fill="black" fill-opacity="0.8"/>
</svg>
